<svg viewBox="0 0 943.52 415.25" xmlns="http://www.w3.org/2000/svg"><path d="m15.49 136.08v90.48h-11.74v-90.48z"/><path d="m84.35 141q7.94 6.56 7.94 18.72v3.28q0 13-7.74 20t-23.35 7a86.65 86.65 0 0 1 -13.26-1v37.57h-11.74v-91.46q11.74-.69 23.9-.69 16.32 0 24.25 6.58zm-36.35 3.64v34.26a103.39 103.39 0 0 0 12.66 1.1q19.89 0 19.89-17.54v-2.35q0-7.87-5-11.81t-15.75-3.94q-6.04.01-11.8.28z"/><path d="m154.87 140.77q7.74 6.36 7.74 17.82v3.41a23.62 23.62 0 0 1 -4.42 14.16 23.25 23.25 0 0 1 -12.71 8.63l23.52 41.76h-13.16l-22-39.23c-.74.09-2.21.14-4.42.14q-5.52 0-10.91-.41v39.51h-11.7v-91.56q15.47-.56 24-.55 16.32-.03 24.06 6.32zm-36.33 3.87v32.6q7.45.69 12.43.69 19.89 0 19.89-16.16v-2.77q0-7.45-4.84-11t-15.47-3.59q-4.55-.04-12.01.23z"/><path d="m220.9 135.32q6.63.9 12.16 2l-.28 10.36q-15.61-3-23.62-3-9.53 0-13.61 3.8t-4.07 12.64v40.06q0 8.84 4.07 12.78t13.61 3.94a88.46 88.46 0 0 0 16.16-1.93v-30.57h-17.27v-11.05h29v48.76q-16.58 5.12-27.9 5.11-15.89 0-22.66-6.77t-6.77-21.14v-38q0-14.64 6.91-21.27t22.52-6.63a88.39 88.39 0 0 1 11.75.91z"/><path d="m737.94 287.03 54.71 11.12 36.98-41.82-17.72-52.94-54.72-11.12-36.98 41.82z" fill="#95c11f"/><path d="m793.57 300.89-57.57-11.69-18.64-55.68 38.9-44 57.54 11.69 18.65 55.68zm-53.72-16 51.88 10.54 35.07-39.66-16.8-50.22-51.89-10.55-35.11 39.67z" fill="#fff"/><path d="m776.45 97.5 54.71 11.12 36.99-41.82-17.73-52.95-54.71-11.11-36.99 41.82z" fill="#95c11f"/><path d="m832.08 111.36-57.54-11.69-18.65-55.67 38.9-44 57.54 11.69 18.67 55.68zm-53.72-16 51.88 10.54 35.07-39.66-16.81-50.24-51.88-10.53-35.07 39.66z" fill="#fff"/><path d="m646.27 317.75 54.71 11.11 36.99-41.82-17.73-52.94-54.71-11.12-36.99 41.82z" fill="#706f6f"/><path d="m701.9 331.6-57.54-11.69-18.64-55.68 38.9-44 57.54 11.69 18.65 55.68zm-53.72-16 51.88 10.54 35.07-39.66-16.81-50.2-51.88-10.54-35.07 39.66z" fill="#fff"/><path d="m665.53 222.98 54.71 11.12 36.99-41.83-17.73-52.94-54.71-11.12-36.99 41.83z" fill="#95c11f"/><path d="m721.16 236.84-57.54-11.7-18.62-55.68 38.9-44 57.54 11.69 18.64 55.68zm-53.72-16 51.88 10.54 35.07-39.66-16.81-50.2-51.88-10.52-35.07 39.66z" fill="#fff"/><path d="m684.79 128.21 54.71 11.12 36.98-41.82-17.72-52.94-54.72-11.12-36.98 41.82z" fill="#95c11f"/><path d="m740.42 142.07-57.54-11.69-18.65-55.68 38.9-44 57.54 11.7 18.64 55.68zm-53.72-16 51.88 10.54 35.07-39.66-16.81-50.2-51.84-10.56-35.11 39.66z" fill="#fff"/><path d="m0 301.83 4.21-34.5h4.49l-4.21 34.5z"/><path d="m31.56 277c.91 1 1.37 2.63 1.37 4.85a20.88 20.88 0 0 1 -.26 3.32l-2.53 16.65h-4.48l2.63-16.75a14.76 14.76 0 0 0 .21-2.42 3.75 3.75 0 0 0 -.55-2.32 1.93 1.93 0 0 0 -1.61-.68q-1.85 0-3.79 2.5a24.66 24.66 0 0 0 -3.55 7.18 58.58 58.58 0 0 0 -2.42 10.93l-.21 1.58h-4.46l3.58-25.71h4.21l-.58 4.16-2.37 8.9.16.11.16-.11a29.37 29.37 0 0 1 4.58-10.19c1.83-2.33 3.79-3.5 5.9-3.5a5.07 5.07 0 0 1 4.01 1.5z"/><path d="m46.31 276.12h6.85l-.53 3.69h-6.85l-2.11 15.06a7.31 7.31 0 0 0 -.05 1.05 2.73 2.73 0 0 0 .66 2.05 2.77 2.77 0 0 0 2 .63 9.7 9.7 0 0 0 2.42-.37 14.07 14.07 0 0 0 2.32-.79l-.53 3.85a10 10 0 0 1 -2.34.82 11 11 0 0 1 -2.5.34 7.4 7.4 0 0 1 -4.93-1.4 5.6 5.6 0 0 1 -1.61-4.45 14.31 14.31 0 0 1 .16-2.11l2.11-14.7h-3.76l.37-2.63 4.21-.79 2.42-7.11h2.63z"/><path d="m73.17 277.26a6.06 6.06 0 0 1 2 4.77 8.9 8.9 0 0 1 -3.58 7.14q-3.59 2.93-11.06 3.56l-.05.58a8.22 8.22 0 0 0 -.16 1.58q0 3.74 3.95 3.74a13.63 13.63 0 0 0 3.63-.55 20.13 20.13 0 0 0 3.84-1.5l-.74 4.06a20.28 20.28 0 0 1 -3.87 1.36 15.4 15.4 0 0 1 -3.61.5q-7.59 0-7.58-7.64a23 23 0 0 1 .26-3l.63-4.11q.9-6 3.77-9.11a9.27 9.27 0 0 1 7.08-3.11 7.89 7.89 0 0 1 5.49 1.73zm-9.48 4.1a12.45 12.45 0 0 0 -2.32 6.14l-.37 2.37a30.89 30.89 0 0 0 5.69-1.42 12.09 12.09 0 0 0 3.08-2.9 5.31 5.31 0 0 0 1-3.06 3.24 3.24 0 0 0 -.87-2.4 3.16 3.16 0 0 0 -2.34-.87 5 5 0 0 0 -3.87 2.14z"/><path d="m94.4 275.6-.84 5.64a5.42 5.42 0 0 0 -1.37-.16c-2.07 0-3.92 1.72-5.53 5.16a45 45 0 0 0 -3.48 13.22l-.32 2.37h-4.48l3.62-25.71h4.21l-.58 4.16-2.37 8.9.16.11.16-.11a31 31 0 0 1 4.42-10.18q2.61-3.5 5.56-3.5z"/><path d="m115.15 277c.91 1 1.37 2.63 1.37 4.85a20.88 20.88 0 0 1 -.26 3.32l-2.53 16.65h-4.48l2.63-16.75a14.76 14.76 0 0 0 .21-2.42 3.75 3.75 0 0 0 -.55-2.32 1.93 1.93 0 0 0 -1.61-.68q-1.84 0-3.79 2.5a24.66 24.66 0 0 0 -3.53 7.16 58.58 58.58 0 0 0 -2.42 10.93l-.21 1.58h-4.48l3.58-25.71h4.21l-.58 4.16-2.37 8.9.16.11.16-.11a29.37 29.37 0 0 1 4.58-10.17c1.83-2.33 3.79-3.5 5.9-3.5a5.06 5.06 0 0 1 4.01 1.5z"/><path d="m134.85 276.36a10.26 10.26 0 0 1 3 2.4l.32-2.63h4.21l-3.58 25.71h-4.27l.47-3.42 2.16-6.58-.1-.1-.16.05q-3.58 10.69-9.69 10.69a5.43 5.43 0 0 1 -4.24-1.79 7.32 7.32 0 0 1 -1.61-5.06 12.91 12.91 0 0 1 .21-2.42l1.37-8.59a12.19 12.19 0 0 1 3-6.79 7.48 7.48 0 0 1 5.5-2.32 7 7 0 0 1 3.41.85zm-7.48 8.51-1.26 7.74a17.22 17.22 0 0 0 -.26 2.53 3.88 3.88 0 0 0 .66 2.55 2.39 2.39 0 0 0 1.92.76q2.85 0 4.95-3.5a24.91 24.91 0 0 0 3-7.88l.68-4.9a8.26 8.26 0 0 0 -2.4-2.08 5.34 5.34 0 0 0 -2.66-.76c-2.49.01-4 1.85-4.63 5.54z"/><path d="m155 276.12h6.85l-.53 3.69h-6.85l-2.11 15.06a7.31 7.31 0 0 0 -.05 1.05 2.73 2.73 0 0 0 .66 2.05 2.77 2.77 0 0 0 2 .63 9.7 9.7 0 0 0 2.42-.37 14.07 14.07 0 0 0 2.32-.79l-.53 3.85a10 10 0 0 1 -2.34.82 11 11 0 0 1 -2.5.34 7.4 7.4 0 0 1 -4.93-1.4 5.6 5.6 0 0 1 -1.61-4.45 14.31 14.31 0 0 1 .16-2.11l2.11-14.7h-3.74l.37-2.63 4.21-.79 2.42-7.11h2.63z"/><path d="m164.08 301.83 3.58-25.71h4.48l-3.58 25.71zm8.69-30.83a3.7 3.7 0 0 1 -2.16.53 3.16 3.16 0 0 1 -2.19-.69 2 2 0 0 1 -.61-1.84l.21-1.53a2.4 2.4 0 0 1 .9-1.71 3.55 3.55 0 0 1 2.16-.55 3.12 3.12 0 0 1 2.19.71 2 2 0 0 1 .61 1.87l-.21 1.53a2.32 2.32 0 0 1 -.9 1.68z"/><path d="m192.05 299.91a9.39 9.39 0 0 1 -6.9 2.56c-2.81 0-5-.69-6.45-2.05a7.41 7.41 0 0 1 -2.24-5.74 11.69 11.69 0 0 1 .16-1.9l1-7.58a11.71 11.71 0 0 1 3.27-7.19 9.61 9.61 0 0 1 6.9-2.5c2.77 0 4.9.69 6.37 2.08a7.48 7.48 0 0 1 2.21 5.71 12.57 12.57 0 0 1 -.16 1.95l-1 7.32a12.28 12.28 0 0 1 -3.16 7.34zm-.1-16.25a4.46 4.46 0 0 0 -1.16-3.27 4.28 4.28 0 0 0 -3.16-1.16q-4.63 0-5.37 5.37l-1.21 8.53c-.07.56-.11.95-.11 1.16a4.38 4.38 0 0 0 1.19 3.24 4.31 4.31 0 0 0 3.19 1.19q4.63 0 5.32-5.37l1.21-8.48c.06-.56.15-.97.15-1.21z"/><path d="m220.44 277c.91 1 1.37 2.63 1.37 4.85a20.88 20.88 0 0 1 -.26 3.32l-2.55 16.67h-4.48l2.63-16.75a14.76 14.76 0 0 0 .21-2.42 3.75 3.75 0 0 0 -.55-2.32 1.93 1.93 0 0 0 -1.61-.68q-1.84 0-3.79 2.5a24.66 24.66 0 0 0 -3.53 7.16 58.58 58.58 0 0 0 -2.42 10.93l-.21 1.58h-4.48l3.58-25.71h4.21l-.58 4.16-2.37 8.9.16.11.16-.11a29.37 29.37 0 0 1 4.6-10.19c1.83-2.33 3.79-3.5 5.9-3.5a5 5 0 0 1 4.01 1.5z"/><path d="m240.14 276.36a10.26 10.26 0 0 1 3 2.4l.32-2.63h4.21l-3.67 25.71h-4.27l.47-3.42 2.16-6.58-.1-.1-.16.05q-3.58 10.69-9.69 10.69a5.43 5.43 0 0 1 -4.24-1.79 7.32 7.32 0 0 1 -1.61-5.06 12.91 12.91 0 0 1 .21-2.42l1.37-8.59a12.19 12.19 0 0 1 3-6.79 7.48 7.48 0 0 1 5.5-2.32 7 7 0 0 1 3.5.85zm-7.48 8.51-1.26 7.74a17.22 17.22 0 0 0 -.26 2.53 3.88 3.88 0 0 0 .66 2.55 2.39 2.39 0 0 0 1.92.76q2.85 0 4.95-3.5a24.91 24.91 0 0 0 3-7.88l.68-4.9a8.26 8.26 0 0 0 -2.4-2.08 5.34 5.34 0 0 0 -2.66-.76c-2.49.01-4.03 1.85-4.63 5.54z"/><path d="m259.32 277.39-3.42 24.44h-4.48l3.37-24.12a107.14 107.14 0 0 0 1.05-11.85h4.48a100.92 100.92 0 0 1 -1 11.53z"/><path d="m294.58 269a7.76 7.76 0 0 1 3 6.51 10.43 10.43 0 0 1 -.16 1.79l-.11.74a10.7 10.7 0 0 1 -3.87 7.19q-3.18 2.5-8.67 2.5a31.19 31.19 0 0 1 -5.37-.69l-1.74 14.75h-4.48l4.3-34.79c3.09-.18 5.93-.26 8.53-.26 3.7-.05 6.55.74 8.57 2.26zm-13.09 1.5-1.63 13a27.46 27.46 0 0 0 4.85.53 9 9 0 0 0 5.61-1.53 7.33 7.33 0 0 0 2.55-4.74l.11-.58a7.2 7.2 0 0 0 .1-1.42 4.7 4.7 0 0 0 -1.84-3.95 8.66 8.66 0 0 0 -5.37-1.42c-1.45.04-2.87.08-4.38.15z"/><path d="m315.62 275.6-.84 5.64a5.42 5.42 0 0 0 -1.37-.16c-2.07 0-3.92 1.72-5.53 5.16a45 45 0 0 0 -3.48 13.22l-.32 2.37h-4.48l3.58-25.71h4.21l-.58 4.16-2.37 8.9.16.11.16-.11a31 31 0 0 1 4.45-10.18q2.61-3.5 5.56-3.5z"/><path d="m332.85 299.91a9.39 9.39 0 0 1 -6.9 2.56c-2.81 0-5-.69-6.45-2.05a7.41 7.41 0 0 1 -2.24-5.74 11.69 11.69 0 0 1 .16-1.9l1.05-7.58a11.71 11.71 0 0 1 3.27-7.19 9.61 9.61 0 0 1 6.9-2.5c2.77 0 4.9.69 6.37 2.08a7.48 7.48 0 0 1 2.21 5.71 12.57 12.57 0 0 1 -.16 1.95l-1 7.32a12.28 12.28 0 0 1 -3.21 7.34zm-.11-16.25a4.46 4.46 0 0 0 -1.16-3.27 4.28 4.28 0 0 0 -3.16-1.16q-4.64 0-5.37 5.37l-1.21 8.53c-.07.56-.11.95-.11 1.16a4.38 4.38 0 0 0 1.19 3.24 4.31 4.31 0 0 0 3.19 1.19q4.63 0 5.32-5.37l1.21-8.48a10.87 10.87 0 0 0 .1-1.21z"/><path d="m361 277.33a8 8 0 0 1 1.61 5.37 22.14 22.14 0 0 1 -.37 3.48l-1.47 7.82q-1.57 8.43-8.27 8.43a8.51 8.51 0 0 1 -3.27-.71 9.4 9.4 0 0 1 -3-1.92 119.39 119.39 0 0 1 -2.48 11.75h-4.42a141.54 141.54 0 0 0 2.84-14.85l2.95-20.6h4.21l-.42 3.06-2.42 9.27.11.11.16-.11a31.49 31.49 0 0 1 4.29-9.72q2.4-3.24 5.56-3.24a5.45 5.45 0 0 1 4.39 1.86zm-8.93 4.35a20.94 20.94 0 0 0 -3.16 5.72 32.58 32.58 0 0 0 -1.9 7.37l-.26 1.84a8.6 8.6 0 0 0 2.25 1.39 6.3 6.3 0 0 0 2.34.53 4.44 4.44 0 0 0 3.24-1.21 7.39 7.39 0 0 0 1.76-3.9l1.37-6.95a17.26 17.26 0 0 0 .32-3 5.29 5.29 0 0 0 -.68-3 2.09 2.09 0 0 0 -1.79-1c-1.12.02-2.29.75-3.49 2.21z"/><path d="m382.83 299.91a9.39 9.39 0 0 1 -6.9 2.56c-2.81 0-5-.69-6.45-2.05a7.41 7.41 0 0 1 -2.24-5.74 11.69 11.69 0 0 1 .16-1.9l1.05-7.58a11.71 11.71 0 0 1 3.27-7.19 9.61 9.61 0 0 1 6.9-2.5c2.77 0 4.9.69 6.37 2.08a7.48 7.48 0 0 1 2.21 5.71 12.57 12.57 0 0 1 -.16 1.95l-1 7.32a12.23 12.23 0 0 1 -3.21 7.34zm-.1-16.25a4.46 4.46 0 0 0 -1.16-3.27 4.28 4.28 0 0 0 -3.16-1.16q-4.64 0-5.37 5.37l-1.21 8.53c-.07.56-.11.95-.11 1.16a4.38 4.38 0 0 0 1.19 3.24 4.31 4.31 0 0 0 3.19 1.19q4.63 0 5.32-5.37l1.21-8.48c.06-.56.1-.97.1-1.21z"/><path d="m399.48 277.39-3.42 24.44h-4.48l3.42-24.12a107.14 107.14 0 0 0 1-11.85h4.48a98.69 98.69 0 0 1 -1 11.53z"/><path d="m403.43 301.83 3.57-25.71h4.48l-3.58 25.71zm8.69-30.83a3.7 3.7 0 0 1 -2.16.53 3.16 3.16 0 0 1 -2.19-.69 2 2 0 0 1 -.61-1.84l.21-1.53a2.4 2.4 0 0 1 .9-1.71 3.55 3.55 0 0 1 2.16-.55 3.12 3.12 0 0 1 2.19.71 2 2 0 0 1 .61 1.87l-.21 1.53a2.36 2.36 0 0 1 -.9 1.68z"/><path d="m428.08 275.78a32.54 32.54 0 0 1 3.42.76l-.63 4.06a32.53 32.53 0 0 0 -4.27-1.37l-1.9-.11q-3.52 0-3.95 2.69l-.05.32a2.26 2.26 0 0 0 -.05.58 3 3 0 0 0 .55 1.79 3.7 3.7 0 0 0 1.61 1.26l4.32 2a7.05 7.05 0 0 1 3.08 2.53 6.55 6.55 0 0 1 1.08 3.69 6.64 6.64 0 0 1 -.05.9l-.11.84a7.34 7.34 0 0 1 -2.55 4.9 8.9 8.9 0 0 1 -5.93 1.84 16.46 16.46 0 0 1 -4-.55 17 17 0 0 1 -3.87-1.45l.68-4.06a27.17 27.17 0 0 0 2.5 1.19 25 25 0 0 0 2.55.92 18.59 18.59 0 0 0 2 .16c2.49 0 3.92-1.12 4.27-3.37l.05-.32a2.82 2.82 0 0 0 0-.58 3.05 3.05 0 0 0 -.55-1.76 3.94 3.94 0 0 0 -1.5-1.29l-4.21-2a7.78 7.78 0 0 1 -3.24-2.58 6.2 6.2 0 0 1 -1.08-3.58 6 6 0 0 1 .11-1.37l.16-.84q1-5.53 8.48-5.53a17.79 17.79 0 0 1 3.08.33z"/><path d="m21.39 332.27a7.52 7.52 0 0 1 2.95 6.16c0 .35 0 .84-.11 1.48l-.16 1a9.68 9.68 0 0 1 -2.45 5.21 11.44 11.44 0 0 1 -5.14 3.27l7.22 15.61h-5.11q-2.47-6.11-3.82-9.17c-.9-2-1.85-4-2.87-5.85a38.88 38.88 0 0 1 -5.58-.42l-1.84 15.44h-4.48l4.27-34.87c3.27-.18 6.23-.26 8.9-.26 3.52.03 6.25.82 8.22 2.4zm-13.11 1.48-1.53 12.43a43 43 0 0 0 4.63.32q7.28 0 8.27-5.95l.05-.32c.07-.63.11-1.09.11-1.37a4.57 4.57 0 0 0 -1.76-3.86 8.54 8.54 0 0 0 -5.24-1.34z"/><path d="m45.2 340.46a6.06 6.06 0 0 1 2 4.77 8.9 8.9 0 0 1 -3.58 7.14q-3.59 2.92-11.06 3.56l-.05.58a8.22 8.22 0 0 0 -.16 1.58q0 3.74 3.95 3.74a13.63 13.63 0 0 0 3.63-.55 20.13 20.13 0 0 0 3.84-1.5l-.77 4.06a20.28 20.28 0 0 1 -3.82 1.34 15.4 15.4 0 0 1 -3.61.5q-7.57 0-7.57-7.68a23 23 0 0 1 .26-3l.63-4.11q.9-6 3.77-9.11a9.27 9.27 0 0 1 7.08-3.11 8 8 0 0 1 5.46 1.79zm-9.48 4.11a12.45 12.45 0 0 0 -2.32 6.14l-.4 2.37a30.89 30.89 0 0 0 5.69-1.42 12.09 12.09 0 0 0 3.08-2.9 5.3 5.3 0 0 0 1-3.05 3.24 3.24 0 0 0 -.87-2.4 3.16 3.16 0 0 0 -2.34-.87 5 5 0 0 0 -3.84 2.13z"/><path d="m63.21 339a32.54 32.54 0 0 1 3.42.76l-.63 4.05a32.53 32.53 0 0 0 -4.27-1.37l-1.9-.11q-3.53 0-3.95 2.69l-.05.32a2.26 2.26 0 0 0 0 .58 3 3 0 0 0 .55 1.79 3.7 3.7 0 0 0 1.56 1.29l4.32 2a7.05 7.05 0 0 1 3.08 2.53 6.55 6.55 0 0 1 1.08 3.69 6.75 6.75 0 0 1 0 .9l-.11.84a7.34 7.34 0 0 1 -2.55 4.9 8.9 8.9 0 0 1 -5.93 1.84 16.46 16.46 0 0 1 -4-.55 17 17 0 0 1 -3.87-1.45l.68-4.06a27.17 27.17 0 0 0 2.5 1.19 25 25 0 0 0 2.55.92 16.41 16.41 0 0 0 2 .16c2.49 0 3.92-1.12 4.27-3.37v-.32a2.82 2.82 0 0 0 .05-.58 3.05 3.05 0 0 0 -.55-1.76 3.94 3.94 0 0 0 -1.5-1.29l-4.21-1.95a7.78 7.78 0 0 1 -3.22-2.64 6.2 6.2 0 0 1 -1.08-3.58 6 6 0 0 1 .11-1.37l.16-.84q1-5.53 8.48-5.53a17.61 17.61 0 0 1 3.01.32z"/><path d="m88.45 340.46a6.06 6.06 0 0 1 2 4.77 8.9 8.9 0 0 1 -3.58 7.14q-3.59 2.92-11.06 3.56v.58a8.22 8.22 0 0 0 -.16 1.58q0 3.74 4 3.74a13.63 13.63 0 0 0 3.63-.55 20.13 20.13 0 0 0 3.84-1.5l-.79 4.06a20.28 20.28 0 0 1 -3.82 1.34 15.4 15.4 0 0 1 -3.61.5q-7.59 0-7.58-7.64a23 23 0 0 1 .26-3l.63-4.11q.9-6 3.77-9.11a9.27 9.27 0 0 1 7.02-3.11 8 8 0 0 1 5.45 1.75zm-9.45 4.11a12.45 12.45 0 0 0 -2.32 6.14l-.37 2.37a30.89 30.89 0 0 0 5.69-1.42 12.09 12.09 0 0 0 3.08-2.9 5.3 5.3 0 0 0 1-3.05 3.24 3.24 0 0 0 -.87-2.4 3.16 3.16 0 0 0 -2.34-.87 5 5 0 0 0 -3.87 2.13z"/><path d="m107.3 339.57a10.26 10.26 0 0 1 3 2.4l.32-2.63h4.21l-3.58 25.71h-4.27l.47-3.42 2.16-6.58-.1-.11-.16.05q-3.58 10.69-9.69 10.69a5.43 5.43 0 0 1 -4.24-1.79 7.32 7.32 0 0 1 -1.61-5.06 12.91 12.91 0 0 1 .21-2.42l1.37-8.59a12.19 12.19 0 0 1 3-6.79 7.48 7.48 0 0 1 5.5-2.32 7.07 7.07 0 0 1 3.41.86zm-7.48 8.51-1.26 7.74a17.22 17.22 0 0 0 -.26 2.53 3.88 3.88 0 0 0 .7 2.55 2.39 2.39 0 0 0 1.92.76q2.85 0 5-3.5a24.91 24.91 0 0 0 3-7.88l.68-4.9a8.26 8.26 0 0 0 -2.4-2.08 5.34 5.34 0 0 0 -2.66-.76q-3.83 0-4.72 5.54z"/><path d="m134.59 338.81-.84 5.64a5.42 5.42 0 0 0 -1.37-.16c-2.07 0-3.92 1.72-5.53 5.16a45 45 0 0 0 -3.48 13.22l-.32 2.37h-4.48l3.58-25.71h4.21l-.58 4.16-2.37 8.9.16.11.16-.11a31 31 0 0 1 4.45-10.19q2.61-3.49 5.56-3.5z"/><path d="m138.22 363.72a7.54 7.54 0 0 1 -2-5.64 14.67 14.67 0 0 1 .16-2.16l1.11-7.8q.69-4.85 3.13-7.14a9.2 9.2 0 0 1 6.56-2.29 21.66 21.66 0 0 1 6 .95l-.63 4a15.94 15.94 0 0 0 -5.43-1.16 4.6 4.6 0 0 0 -3.42 1.32 6.79 6.79 0 0 0 -1.69 3.95l-1.11 8.11a10.63 10.63 0 0 0 -.11 1.69 4.49 4.49 0 0 0 1 3.19 3.71 3.71 0 0 0 2.79 1 11.74 11.74 0 0 0 3.11-.45 13.62 13.62 0 0 0 3.11-1.29l-.47 4.06a14.88 14.88 0 0 1 -6.37 1.63 7.78 7.78 0 0 1 -5.74-1.97z"/><path d="m164.67 338-.21 1.53-3.21 12.91.16.11.16-.11a29.37 29.37 0 0 1 4.58-10.19c1.83-2.33 3.79-3.5 5.9-3.5a5.08 5.08 0 0 1 4 1.53c.91 1 1.37 2.63 1.37 4.85a20.88 20.88 0 0 1 -.26 3.32l-2.54 16.55h-4.48l2.63-16.75a14.76 14.76 0 0 0 .21-2.42 3.75 3.75 0 0 0 -.55-2.32 1.93 1.93 0 0 0 -1.61-.68c-1.23 0-2.48.84-3.77 2.53a26.05 26.05 0 0 0 -3.48 6.85 45.66 45.66 0 0 0 -2.24 9.38l-.47 3.42h-4.48l3.37-24.12a107.14 107.14 0 0 0 1.05-11.85h4.48a73.42 73.42 0 0 1 -.61 8.96z"/><path d="m195.24 363.22a9 9 0 0 1 -2.66-7 14.67 14.67 0 0 1 .16-2.16l1.63-13.54c.42-3.62 1.58-6.29 3.48-8s4.71-2.61 8.43-2.61a29.89 29.89 0 0 1 4.82.45 34.59 34.59 0 0 1 4.71 1.08l-.53 4.11a30.7 30.7 0 0 0 -4.66-1.29 23.74 23.74 0 0 0 -4.56-.5 7.45 7.45 0 0 0 -5.06 1.53 7.58 7.58 0 0 0 -2.16 5l-1.79 14.64c-.07.63-.11 1.09-.11 1.37a5.15 5.15 0 0 0 1.58 4.11 6.81 6.81 0 0 0 4.58 1.37 16.7 16.7 0 0 0 6.22-1.16l1.37-11.22h-6.64l.58-4.21h11.06l-2.16 17.54a31.07 31.07 0 0 1 -5.29 2.13 18.34 18.34 0 0 1 -5.29.87c-3.36-.06-5.95-.88-7.71-2.51z"/><path d="m236.46 338.81-.84 5.64a5.42 5.42 0 0 0 -1.37-.16c-2.07 0-3.92 1.72-5.53 5.16a45 45 0 0 0 -3.48 13.22l-.32 2.37h-4.48l3.56-25.71h4.21l-.58 4.16-2.37 8.9.16.11.16-.11a31 31 0 0 1 4.45-10.19q2.61-3.49 5.56-3.5z"/><path d="m253.68 363.11a9.39 9.39 0 0 1 -6.9 2.55q-4.22 0-6.45-2.05a7.41 7.41 0 0 1 -2.24-5.74 11.69 11.69 0 0 1 .16-1.9l1.05-7.58a11.71 11.71 0 0 1 3.27-7.19 9.61 9.61 0 0 1 6.9-2.5c2.77 0 4.9.69 6.37 2.08a7.48 7.48 0 0 1 2.21 5.71 12.57 12.57 0 0 1 -.16 1.95l-1 7.32a12.23 12.23 0 0 1 -3.21 7.35zm-.1-16.25a4.46 4.46 0 0 0 -1.16-3.27 4.28 4.28 0 0 0 -3.16-1.16q-4.63 0-5.37 5.37l-1.21 8.53c-.07.56-.11.95-.11 1.16a4.38 4.38 0 0 0 1.19 3.24 4.31 4.31 0 0 0 3.19 1.19q4.63 0 5.32-5.37l1.21-8.48c.06-.56.1-.96.1-1.21z"/><path d="m280.65 365h-4.21l.21-1.47 2.42-8.53-.11-.11-.16.05q-3.58 10.69-9.69 10.69a5.38 5.38 0 0 1 -4.24-1.76 7.54 7.54 0 0 1 -1.55-5.14c0-.42.07-1.23.21-2.42l2.48-17h4.48l-2.42 16.49a15.1 15.1 0 0 0 -.21 2.48 4.16 4.16 0 0 0 .63 2.61 2.31 2.31 0 0 0 1.9.76q3.38 0 5.43-4.42a32.85 32.85 0 0 0 2.74-9.38l1.21-8.53h4.53z"/><path d="m307.44 340.54a8 8 0 0 1 1.61 5.37 22.14 22.14 0 0 1 -.37 3.48l-1.47 7.85q-1.57 8.43-8.27 8.43a8.51 8.51 0 0 1 -3.27-.71 9.52 9.52 0 0 1 -2.95-1.92 119.39 119.39 0 0 1 -2.48 11.75h-4.42a141.54 141.54 0 0 0 2.84-14.85l2.95-20.6h4.21l-.42 3.06-2.4 9.27.11.11.16-.11a31.49 31.49 0 0 1 4.29-9.72q2.4-3.24 5.56-3.24a5.47 5.47 0 0 1 4.32 1.83zm-8.93 4.35a21 21 0 0 0 -3.16 5.71 32.58 32.58 0 0 0 -1.9 7.37l-.26 1.84a8.6 8.6 0 0 0 2.29 1.37 6.3 6.3 0 0 0 2.34.53 4.44 4.44 0 0 0 3.24-1.21 7.39 7.39 0 0 0 1.76-3.9l1.37-7a17.26 17.26 0 0 0 .32-3 5.29 5.29 0 0 0 -.68-3 2.09 2.09 0 0 0 -1.79-1c-1.16.1-2.34.83-3.53 2.29z"/><path d="m829.74 256.35 54.71 11.12 36.98-41.83-17.72-52.94-54.72-11.12-36.98 41.83z" fill="#95c11f"/><path d="m885.37 270.2-57.54-11.69-18.64-55.68 38.9-44 57.54 11.69 18.65 55.68zm-53.72-16 51.88 10.54 35.07-39.66-16.81-50.2-51.88-10.54-35.07 39.66z" fill="#fff"/><path d="m848.99 161.58 54.72 11.12 36.98-41.82-17.73-52.95-54.71-11.11-36.99 41.82z" fill="#95c11f"/><path d="m904.62 175.44-57.54-11.69-18.64-55.68 38.9-44 57.54 11.69 18.64 55.68zm-53.72-16 51.88 10.56 35.07-39.66-16.85-50.24-51.84-10.54-35.07 39.66z" fill="#fff"/><path d="m572.3 401.39 54.71 11.12 36.99-41.82-17.73-52.94-54.71-11.12-36.99 41.82z" fill="#706f6f"/><path d="m627.93 415.25-57.54-11.69-18.64-55.68 38.9-44 57.54 11.69 18.65 55.68zm-53.72-16 51.88 10.54 35.07-39.66-16.81-50.2-51.88-10.54-35.07 39.61z" fill="#fff"/></svg>